<svg width="456" height="456" viewBox="0 0 456 456" fill="none" xmlns="http://www.w3.org/2000/svg">
<path d="M262.975 113.462V140.421L367.29 175.688L335.47 137.976L262.975 113.462Z" stroke="#390297" stroke-width="1.15" stroke-linecap="round" stroke-linejoin="round"/>
<path d="M158.651 175.688L262.975 344.59L158.651 243.404V175.688Z" stroke="#390297" stroke-width="1.15" stroke-linecap="round" stroke-linejoin="round"/>
<path d="M262.975 140.421L158.651 175.688L262.975 344.59V140.421Z" stroke="#390297" stroke-width="1.15" stroke-linecap="round" stroke-linejoin="round"/>
<path d="M262.975 113.462V140.421L158.651 175.688L190.471 137.976L262.975 113.462Z" stroke="#390297" stroke-width="1.15" stroke-linecap="round" stroke-linejoin="round"/>
<path opacity="0.8" d="M190.471 137.976L158.651 175.688V243.404L190.471 185.036V137.976Z" fill="#390297" stroke="#390297" stroke-width="1.15" stroke-linejoin="bevel"/>
<path d="M367.29 175.688L262.975 344.59L367.29 243.404V175.688Z" stroke="#390297" stroke-width="1.15" stroke-linecap="round" stroke-linejoin="round"/>
<path d="M262.975 140.421V344.59L367.29 175.688L262.975 140.421Z" stroke="#390297" stroke-width="1.15" stroke-linecap="round" stroke-linejoin="round"/>
<path opacity="0.8" d="M262.975 278.67V344.59L367.29 243.403L262.975 278.67Z" fill="#A774FD" stroke="#390297" stroke-width="1.15" stroke-linecap="round" stroke-linejoin="round"/>
<path opacity="0.8" d="M158.651 243.403L262.975 344.59V278.67L158.651 243.403Z" fill="#390297" stroke="#390297" stroke-width="1.15" stroke-linejoin="bevel"/>
<path opacity="0.8" d="M335.47 137.976L367.289 175.688V243.404L335.47 185.036V137.976Z" fill="#A774FD" stroke="#390297" stroke-width="1.15" stroke-linecap="round" stroke-linejoin="round"/>
<path opacity="0.9" d="M190.471 185.036V137.976L262.975 113.462L335.47 137.976V185.036L262.975 209.541L190.471 185.036Z" fill="#7F35FD" stroke="#390297" stroke-width="1.15" stroke-linejoin="bevel"/>
<path opacity="0.8" d="M262.975 209.542V278.671L367.29 243.404L335.47 185.036L262.975 209.542Z" fill="#A774FD" stroke="#390297" stroke-width="1.15" stroke-linecap="round" stroke-linejoin="round"/>
<path opacity="0.9" d="M158.651 243.404L190.471 185.036L262.975 209.542V278.671L158.651 243.404Z" fill="#7F35FD" stroke="#390297" stroke-width="1.15" stroke-linejoin="bevel"/>
<path d="M355.762 361.982V370.163L387.399 380.852L377.75 369.415L355.762 361.982Z" stroke="#390297" stroke-width="1.01" stroke-linecap="round" stroke-linejoin="round"/>
<path d="M324.134 380.852L355.762 432.07L324.134 401.381V380.852Z" stroke="#390297" stroke-width="1.01" stroke-linecap="round" stroke-linejoin="round"/>
<path d="M355.762 370.163L324.134 380.852L355.762 432.07V370.163Z" stroke="#390297" stroke-width="1.01" stroke-linecap="round" stroke-linejoin="round"/>
<path d="M355.762 361.982V370.163L324.134 380.852L333.783 369.415L355.762 361.982Z" stroke="#390297" stroke-width="1.01" stroke-linecap="round" stroke-linejoin="round"/>
<path d="M333.783 369.415L324.134 380.852V401.381L333.783 383.688V369.415Z" fill="#727EE6" stroke="#390297" stroke-width="1.01" stroke-linecap="round" stroke-linejoin="round"/>
<path d="M387.399 380.852L355.762 432.07L387.399 401.381V380.852Z" stroke="#390297" stroke-width="1.01" stroke-linecap="round" stroke-linejoin="round"/>
<path d="M355.762 370.163V432.07L387.399 380.852L355.762 370.163Z" stroke="#390297" stroke-width="1.01" stroke-linecap="round" stroke-linejoin="round"/>
<path d="M355.762 412.079V432.07L387.399 401.381L355.762 412.079Z" fill="#97A1FC" stroke="#390297" stroke-width="1.01" stroke-linecap="round" stroke-linejoin="round"/>
<path d="M324.134 401.381L355.762 432.07V412.079L324.134 401.381Z" fill="#727EE6" stroke="#390297" stroke-width="1.01" stroke-linecap="round" stroke-linejoin="round"/>
<path d="M377.75 369.415L387.399 380.852V401.381L377.75 383.688V369.415Z" fill="#97A1FC" stroke="#390297" stroke-width="1.01" stroke-linecap="round" stroke-linejoin="round"/>
<path d="M333.783 383.688V369.415L355.762 361.982L377.75 369.415V383.688L355.762 391.121L333.783 383.688Z" fill="#7E8BFD" stroke="#390297" stroke-width="1.01" stroke-linecap="round" stroke-linejoin="round"/>
<path d="M355.762 391.121V412.079L387.399 401.381L377.75 383.688L355.762 391.121Z" fill="#97A1FC" stroke="#390297" stroke-width="1.01" stroke-linecap="round" stroke-linejoin="round"/>
<path d="M324.134 401.381L333.783 383.688L355.762 391.121V412.079L324.134 401.381Z" fill="#727EE6" stroke="#390297" stroke-width="1.01" stroke-linecap="round" stroke-linejoin="round"/>
<path d="M410.436 12.0928V20.2643L442.064 30.9621L432.415 19.5256L410.436 12.0928Z" stroke="#390297" stroke-width="1.01" stroke-linecap="round" stroke-linejoin="round"/>
<path d="M378.808 30.9624L410.436 82.1803L378.808 51.4915V30.9624Z" stroke="#390297" stroke-width="1.01" stroke-linecap="round" stroke-linejoin="round"/>
<path d="M410.436 20.2646L378.808 30.9624L410.436 82.1803V20.2646Z" stroke="#390297" stroke-width="1.01" stroke-linecap="round" stroke-linejoin="round"/>
<path d="M410.436 12.0928V20.2643L378.808 30.9621L388.457 19.5256L410.436 12.0928Z" stroke="#390297" stroke-width="1.01" stroke-linecap="round" stroke-linejoin="round"/>
<path d="M388.457 19.5254L378.808 30.9619V51.491L388.457 33.7982V19.5254Z" fill="#727EE6" stroke="#390297" stroke-width="1.01" stroke-linecap="round" stroke-linejoin="round"/>
<path d="M442.064 30.9624L410.436 82.1803L442.064 51.4915V30.9624Z" stroke="#390297" stroke-width="1.01" stroke-linecap="round" stroke-linejoin="round"/>
<path d="M410.436 20.2646V82.1803L442.064 30.9624L410.436 20.2646Z" stroke="#390297" stroke-width="1.01" stroke-linecap="round" stroke-linejoin="round"/>
<path d="M410.436 62.189V82.18L442.064 51.4912L410.436 62.189Z" fill="#97A1FC" stroke="#390297" stroke-width="1.01" stroke-linecap="round" stroke-linejoin="round"/>
<path d="M378.808 51.4912L410.436 82.18V62.189L378.808 51.4912Z" fill="#727EE6" stroke="#390297" stroke-width="1.01" stroke-linecap="round" stroke-linejoin="round"/>
<path d="M432.416 19.5254L442.064 30.9619V51.491L432.416 33.7982V19.5254Z" fill="#97A1FC" stroke="#390297" stroke-width="1.01" stroke-linecap="round" stroke-linejoin="round"/>
<path d="M388.457 33.7984V19.5256L410.436 12.0928L432.415 19.5256V33.7984L410.436 41.2312L388.457 33.7984Z" fill="#7E8BFD" stroke="#390297" stroke-width="1.01" stroke-linecap="round" stroke-linejoin="round"/>
<path d="M410.436 41.2316V62.1894L442.064 51.4916L432.415 33.7988L410.436 41.2316Z" fill="#97A1FC" stroke="#390297" stroke-width="1.01" stroke-linecap="round" stroke-linejoin="round"/>
<path d="M378.808 51.4916L388.457 33.7988L410.436 41.2316V62.1894L378.808 51.4916Z" fill="#727EE6" stroke="#390297" stroke-width="1.01" stroke-linecap="round" stroke-linejoin="round"/>
<path d="M63.6299 340.085V348.256L95.258 358.954L85.6091 347.518L63.6299 340.085Z" stroke="#390297" stroke-width="1.01" stroke-linecap="round" stroke-linejoin="round"/>
<path d="M32.002 358.954L63.6301 410.163L32.002 379.483V358.954Z" stroke="#390297" stroke-width="1.01" stroke-linecap="round" stroke-linejoin="round"/>
<path d="M63.6301 348.257L32.002 358.954L63.6301 410.163V348.257Z" stroke="#390297" stroke-width="1.01" stroke-linecap="round" stroke-linejoin="round"/>
<path d="M63.6301 340.085V348.256L32.002 358.954L41.6509 347.518L63.6301 340.085Z" stroke="#390297" stroke-width="1.01" stroke-linecap="round" stroke-linejoin="round"/>
<path d="M41.6509 347.518L32.002 358.954V379.483L41.6509 361.781V347.518Z" fill="#727EE6" stroke="#390297" stroke-width="1.01" stroke-linecap="round" stroke-linejoin="round"/>
<path d="M95.258 358.954L63.6299 410.163L95.258 379.483V358.954Z" stroke="#390297" stroke-width="1.01" stroke-linecap="round" stroke-linejoin="round"/>
<path d="M63.6299 348.257V410.163L95.258 358.954L63.6299 348.257Z" stroke="#390297" stroke-width="1.01" stroke-linecap="round" stroke-linejoin="round"/>
<path d="M63.6299 390.172V410.163L95.258 379.483L63.6299 390.172Z" fill="#97A1FC" stroke="#390297" stroke-width="1.01" stroke-linecap="round" stroke-linejoin="round"/>
<path d="M32.002 379.483L63.6301 410.163V390.172L32.002 379.483Z" fill="#727EE6" stroke="#390297" stroke-width="1.01" stroke-linecap="round" stroke-linejoin="round"/>
<path d="M85.6094 347.518L95.2583 358.954V379.483L85.6094 361.781V347.518Z" fill="#97A1FC" stroke="#390297" stroke-width="1.01" stroke-linecap="round" stroke-linejoin="round"/>
<path d="M41.6509 361.781V347.518L63.6301 340.085L85.6093 347.518V361.781L63.6301 369.214L41.6509 361.781Z" fill="#7E8BFD" stroke="#390297" stroke-width="1.01" stroke-linecap="round" stroke-linejoin="round"/>
<path d="M63.6299 369.214V390.172L95.258 379.483L85.6091 361.781L63.6299 369.214Z" fill="#97A1FC" stroke="#390297" stroke-width="1.01" stroke-linecap="round" stroke-linejoin="round"/>
<path d="M32.002 379.483L41.6509 361.781L63.6301 369.214V390.172L32.002 379.483Z" fill="#727EE6" stroke="#390297" stroke-width="1.01" stroke-linecap="round" stroke-linejoin="round"/>
<path d="M58.8237 54.7383V62.9098L90.461 73.6076L80.8121 62.1711L58.8237 54.7383Z" stroke="#390297" stroke-width="1.01" stroke-linecap="round" stroke-linejoin="round"/>
<path d="M27.1958 73.6074L58.824 124.816L27.1958 94.1366V73.6074Z" stroke="#390297" stroke-width="1.01" stroke-linecap="round" stroke-linejoin="round"/>
<path d="M58.824 62.9102L27.1958 73.6079L58.824 124.817V62.9102Z" stroke="#390297" stroke-width="1.01" stroke-linecap="round" stroke-linejoin="round"/>
<path d="M58.824 54.7383V62.9098L27.1958 73.6076L36.8448 62.1711L58.824 54.7383Z" stroke="#390297" stroke-width="1.01" stroke-linecap="round" stroke-linejoin="round"/>
<path d="M36.8448 62.1709L27.1958 73.6074V94.1365L36.8448 76.4437V62.1709Z" fill="#727EE6" stroke="#390297" stroke-width="1.01" stroke-linecap="round" stroke-linejoin="round"/>
<path d="M90.461 73.6074L58.8237 124.816L90.461 94.1366V73.6074Z" stroke="#390297" stroke-width="1.01" stroke-linecap="round" stroke-linejoin="round"/>
<path d="M58.8237 62.9102V124.817L90.461 73.6079L58.8237 62.9102Z" stroke="#390297" stroke-width="1.01" stroke-linecap="round" stroke-linejoin="round"/>
<path d="M58.8237 104.834V124.816L90.461 94.1367L58.8237 104.834Z" fill="#97A1FC" stroke="#390297" stroke-width="1.01" stroke-linecap="round" stroke-linejoin="round"/>
<path d="M27.1958 94.1367L58.824 124.816V104.834L27.1958 94.1367Z" fill="#727EE6" stroke="#390297" stroke-width="1.01" stroke-linecap="round" stroke-linejoin="round"/>
<path d="M80.8125 62.1709L90.4615 73.6074V94.1365L80.8125 76.4437V62.1709Z" fill="#97A1FC" stroke="#390297" stroke-width="1.01" stroke-linecap="round" stroke-linejoin="round"/>
<path d="M36.8447 76.4439V62.1711L58.8239 54.7383L80.8122 62.1711V76.4439L58.8239 83.8676L36.8447 76.4439Z" fill="#7E8BFD" stroke="#390297" stroke-width="1.01" stroke-linecap="round" stroke-linejoin="round"/>
<path d="M58.8237 83.868V104.835L90.461 94.1371L80.8121 76.4443L58.8237 83.868Z" fill="#97A1FC" stroke="#390297" stroke-width="1.01" stroke-linecap="round" stroke-linejoin="round"/>
<path d="M27.1958 94.1371L36.8448 76.4443L58.824 83.868V104.835L27.1958 94.1371Z" fill="#727EE6" stroke="#390297" stroke-width="1.01" stroke-linecap="round" stroke-linejoin="round"/>
<path d="M127.552 338.197C127.552 354.421 121.688 366.651 112.386 373.482L106.896 376.711L101.259 380.021C101.259 380.021 79.5904 378.927 68.2086 372.351C67.7891 372.105 67.3696 371.859 66.9501 371.603C91.0907 381.955 109.905 368.895 109.905 340.176C109.905 308.995 87.7254 270.672 60.6208 255.032C35.8965 240.75 15.267 250.079 11.8379 275.506C11.8379 275.324 11.8379 275.141 11.8379 274.959C11.8379 262.547 19.0701 244.033 19.0701 244.033L29.1294 238.242L30.6251 237.384C41.5053 231.502 56.0152 232.067 71.1726 240.814C102.181 258.716 127.543 302.547 127.543 338.215L127.552 338.197Z" fill="#EFEFEF" stroke="#390297" stroke-width="1.01" stroke-miterlimit="10"/>
<path d="M62.107 245.948C31.099 228.046 2.76318 244.434 2.76318 280.103C2.76318 315.771 28.1259 359.602 59.1339 377.504C90.1419 395.407 118.469 379.018 118.469 343.35C118.469 307.681 93.1059 263.851 62.0979 245.948H62.107ZM60.6205 368.421C33.5158 352.771 11.336 314.448 11.336 283.267C11.336 252.086 33.5158 239.373 60.6205 255.023C87.7251 270.672 109.905 308.986 109.905 340.167C109.905 371.348 87.7251 384.071 60.6205 368.412V368.421Z" fill="#D3D3D3" stroke="#390297" stroke-width="1.01" stroke-miterlimit="10"/>
<path d="M194.849 438.827L186.267 449.324C186.267 449.324 113.17 374.43 113.024 374.257C112.441 373.591 112.222 372.388 112.513 370.782C113.106 367.554 115.56 363.897 117.967 362.666C118.56 362.365 119.089 362.237 119.554 362.264H119.563C119.928 362.283 120.247 362.401 120.512 362.602C120.904 362.903 194.84 438.818 194.84 438.818L194.849 438.827Z" fill="url(#paint0_linear_2854_11326)" stroke="#390297" stroke-width="1.01" stroke-linejoin="round"/>
<path d="M66.9497 371.604C64.8795 370.719 62.7636 369.661 60.6204 368.421C33.5158 352.771 11.3359 314.448 11.3359 283.267C11.3359 280.531 11.5092 277.941 11.8375 275.497C12.0929 310.572 36.6713 353.354 66.9406 371.604H66.9497Z" fill="#332459" stroke="#390297" stroke-width="1.01" stroke-miterlimit="10"/>
<path opacity="0.6" d="M95.583 371.872C114.759 360.72 114.646 324.756 95.3305 291.543C76.0155 258.33 44.8129 240.445 25.6375 251.597C6.46207 262.748 6.57516 298.713 25.8901 331.926C45.205 365.139 76.4076 383.023 95.583 371.872Z" fill="white" stroke="#390297" stroke-width="1.01" stroke-linecap="round" stroke-linejoin="round"/>
<path opacity="0.6" d="M88.5827 281.243L28.3542 335.863C25.4358 331.248 22.8093 326.423 20.5566 321.499L78.3501 269.086C81.989 272.807 85.4181 276.902 88.5827 281.252V281.243Z" fill="#E6F4FF"/>
<path opacity="0.6" d="M97.9671 296.391L38.8604 349.989C36.9452 347.8 35.1029 345.502 33.3428 343.122L93.4983 288.557C95.0852 291.11 96.5717 293.728 97.958 296.382L97.9671 296.391Z" fill="#E6F4FF"/>
<path d="M95.583 371.872C114.759 360.72 114.646 324.756 95.3305 291.543C76.0155 258.33 44.8129 240.445 25.6375 251.597C6.46207 262.748 6.57516 298.713 25.8901 331.926C45.205 365.139 76.4076 383.023 95.583 371.872Z" stroke="#390297" stroke-width="1.01" stroke-linecap="round" stroke-linejoin="round"/>
<path d="M264.781 35.3674L262.382 84.8707C262.373 85.1991 261.835 85.2264 261.817 84.8707L259.418 35.3674C259.373 31.6647 264.817 31.6373 264.781 35.3674Z" fill="#C0E3FF"/>
<path d="M369.925 84.6157L331.448 115.87C331.338 115.961 331.174 115.943 331.083 115.833C331.001 115.733 331.01 115.578 331.101 115.487L366.204 80.4843C369.004 77.8578 372.844 82.0803 369.925 84.6157Z" fill="#C0E3FF"/>
<path d="M157.894 80.6029L193.189 115.396C193.508 115.706 193.052 116.253 192.696 115.943L154.401 84.4789C151.702 82.1168 155.241 78.1496 157.894 80.5938V80.6029Z" fill="#C0E3FF"/>
<path d="M320.094 47.6973L312.342 65.1165" stroke="#390297" stroke-width="1.15" stroke-linecap="round" stroke-linejoin="round"/>
<path d="M397.705 133.891L377.604 140.421" stroke="#390297" stroke-width="1.15" stroke-linecap="round" stroke-linejoin="round"/>
<path d="M126.503 133.891L150.042 141.542" stroke="#390297" stroke-width="1.15" stroke-linecap="round" stroke-linejoin="round"/>
<path d="M204.115 47.6973L211.812 64.9979" stroke="#390297" stroke-width="1.15" stroke-linecap="round" stroke-linejoin="round"/>
<path d="M193.096 446.248C195.484 443.366 196.271 440.079 194.856 438.906C193.44 437.733 190.357 439.119 187.969 442.001C185.582 444.883 184.794 448.17 186.21 449.342C187.626 450.515 190.709 449.13 193.096 446.248Z" fill="#D3D3D3" stroke="#390297" stroke-width="1.01" stroke-linejoin="round"/>
<defs>
<linearGradient id="paint0_linear_2854_11326" x1="146.121" y1="412.187" x2="159.025" y2="398.234" gradientUnits="userSpaceOnUse">
<stop offset="0.17" stop-color="#D3D3D3"/>
<stop offset="0.44" stop-color="#EFEFEF"/>
</linearGradient>
</defs>
</svg>
